<svg width="42" height="54" viewBox="0 0 42 54" fill="none" xmlns="http://www.w3.org/2000/svg">
<path d="M20.74 2.18996L2.36 9.84996C2.17581 9.92563 2.0184 10.0546 1.90794 10.2202C1.79748 10.3859 1.73901 10.5808 1.74 10.78V27.11C1.74068 31.0772 2.77246 34.9762 4.73417 38.4245C6.69587 41.8729 9.52014 44.7521 12.93 46.78L21.11 51.64L29.17 46.79C32.5524 44.7573 35.3514 41.8841 37.2947 38.4496C39.238 35.0151 40.2595 31.1361 40.26 27.19V9.83996C40.2607 9.63564 40.1987 9.43601 40.0825 9.26795C39.9663 9.0999 39.8014 8.97147 39.61 8.89996L21.48 2.17996C21.2411 2.08854 20.9763 2.09211 20.74 2.18996Z" stroke="#333333" stroke-width="3"/>
<path d="M11.01 28.4999L18.44 34.1199L31.56 15.6899" stroke="#333333" stroke-width="3"/>
</svg>
