<svg width="54" height="54" viewBox="0 0 54 54" fill="none" xmlns="http://www.w3.org/2000/svg">
<path d="M26.74 2.18996L8.36 9.84996C8.17581 9.92563 8.0184 10.0546 7.90794 10.2202C7.79748 10.3859 7.73901 10.5808 7.74 10.78V27.11C7.74068 31.0772 8.77246 34.9762 10.7342 38.4245C12.6959 41.8729 15.5201 44.7521 18.93 46.78L27.11 51.64L35.17 46.79C38.5524 44.7573 41.3514 41.8841 43.2947 38.4496C45.238 35.0151 46.2595 31.1361 46.26 27.19V9.83996C46.2607 9.63564 46.1987 9.43601 46.0825 9.26795C45.9663 9.0999 45.8014 8.97147 45.61 8.89996L27.48 2.17996C27.2411 2.08854 26.9763 2.09211 26.74 2.18996Z" stroke="#333333" stroke-width="3"/>
<path d="M17.01 28.4999L24.44 34.1199L37.56 15.6899" stroke="#333333" stroke-width="3"/>
</svg>
