<svg width="56" height="56" viewBox="0 0 56 56" fill="none" xmlns="http://www.w3.org/2000/svg">
<path d="M32.66 50.45H4.83998C4.18724 50.4475 3.56136 50.1898 3.09608 49.732C2.6308 49.2742 2.36303 48.6526 2.34998 48V8.12C2.34998 7.45962 2.61231 6.82627 3.07928 6.35931C3.54625 5.89234 4.17959 5.63 4.83998 5.63H44.68C45.3404 5.63 45.9737 5.89234 46.4407 6.35931C46.9076 6.82627 47.17 7.45962 47.17 8.12V30.52" stroke="#333333" stroke-width="3"/>
<path d="M2.34998 16.63H47.17" stroke="#333333" stroke-width="3"/>
<path d="M12.46 5.63V0.630005" stroke="#333333" stroke-width="3"/>
<path d="M36.42 5.63V0.630005" stroke="#333333" stroke-width="3"/>
<path d="M41.22 53.87C48.0849 53.87 53.65 48.3049 53.65 41.44C53.65 34.5751 48.0849 29.01 41.22 29.01C34.3551 29.01 28.79 34.5751 28.79 41.44C28.79 48.3049 34.3551 53.87 41.22 53.87Z" stroke="#333333" stroke-width="3"/>
<path d="M41.22 32.7V41.82L45.57 45.16" stroke="#333333" stroke-width="3"/>
</svg>
