<svg width="73" height="43" viewBox="0 0 73 43" fill="none" xmlns="http://www.w3.org/2000/svg">
<path d="M26.455 34.4137H46.7856C47.3704 34.4137 47.9313 34.1814 48.3448 33.7679C48.7583 33.3544 48.9906 32.7935 48.9906 32.2087L56.6688 4.09499C56.6688 3.8032 56.6109 3.51431 56.4984 3.24506C56.386 2.97581 56.2212 2.73156 56.0137 2.52646C55.8061 2.32136 55.56 2.15949 55.2894 2.05024C55.0188 1.94098 54.7293 1.88651 54.4375 1.88999H21.1131C20.5271 1.88998 19.9649 2.12187 19.5493 2.53501C19.1337 2.94816 18.8985 3.50898 18.895 4.09499L12.3325 32.2087C12.3325 32.7935 12.5648 33.3544 12.9783 33.7679C13.3919 34.1814 13.9527 34.4137 14.5375 34.4137H17.3988" stroke="#333333" stroke-width="3"/>
<path d="M52.6788 34.4138H48.1244L54.6869 11.7206H65.4756C65.6379 11.7203 65.7983 11.7553 65.9457 11.8233C66.093 11.8913 66.2238 11.9907 66.3288 12.1144L71.0275 20.3831C71.1959 20.5759 71.2891 20.8229 71.29 21.0788L66.9194 34.4138H62.1944" stroke="#333333" stroke-width="3"/>
<path d="M22.0318 40.7794C24.7211 40.7794 26.9012 38.5699 26.9012 35.8444C26.9012 33.1188 24.7211 30.9094 22.0318 30.9094C19.3426 30.9094 17.1625 33.1188 17.1625 35.8444C17.1625 38.5699 19.3426 40.7794 22.0318 40.7794Z" stroke="#333333" stroke-width="3"/>
<path d="M57.5219 40.7794C60.2112 40.7794 62.3913 38.5699 62.3913 35.8444C62.3913 33.1188 60.2112 30.9094 57.5219 30.9094C54.8326 30.9094 52.6525 33.1188 52.6525 35.8444C52.6525 38.5699 54.8326 40.7794 57.5219 40.7794Z" stroke="#333333" stroke-width="3"/>
<path d="M28.5156 8.34747H7.01685" stroke="#333333" stroke-width="3" stroke-linecap="round"/>
<path d="M24.2763 15.225H9.09064" stroke="#333333" stroke-width="3" stroke-linecap="round"/>
<path d="M25.8119 22.9688H2.21313" stroke="#333333" stroke-width="3" stroke-linecap="round"/>
</svg>
