<svg width="52" height="52" viewBox="0 0 52 52" fill="none" xmlns="http://www.w3.org/2000/svg">
<path d="M40.22 28.79C45.93 22.14 50.34 13.4 49.66 2.57997C49.66 2.57997 23.48 -1.36003 7.79004 34.23L18.43 44.87C22.0056 43.2294 25.4232 41.2645 28.64 39" stroke="#333333" stroke-width="3"/>
<path d="M38.53 3.45001C38.9712 6.04538 40.2212 8.43498 42.1015 10.2776C43.9818 12.1201 46.3963 13.3215 49 13.71" stroke="#333333" stroke-width="3"/>
<path d="M33.3 25.12C36.7241 25.12 39.5 22.3441 39.5 18.92C39.5 15.4958 36.7241 12.72 33.3 12.72C29.8758 12.72 27.1 15.4958 27.1 18.92C27.1 22.3441 29.8758 25.12 33.3 25.12Z" stroke="#333333" stroke-width="3"/>
<path d="M8.72999 32.18L3.43 32.86C3.3835 32.8652 3.33646 32.8582 3.29348 32.8397C3.2505 32.8212 3.21306 32.7919 3.18483 32.7546C3.1566 32.7173 3.13854 32.6733 3.13244 32.6269C3.12633 32.5805 3.13238 32.5333 3.14999 32.49L7.06999 23.49C7.25095 23.1067 7.52023 22.7718 7.85574 22.5128C8.19124 22.2538 8.58339 22.078 9 22L15.59 20.62" stroke="#333333" stroke-width="3"/>
<path d="M20.38 43.76L19.7 49.06C19.6948 49.1065 19.7018 49.1536 19.7203 49.1965C19.7388 49.2395 19.7681 49.2769 19.8054 49.3052C19.8427 49.3334 19.8867 49.3515 19.9331 49.3576C19.9795 49.3637 20.0267 49.3576 20.07 49.34L29.07 45.42" stroke="#333333" stroke-width="3"/>
<path d="M16.0501 42.49C13.6801 49.91 2.00005 50.28 2.00005 50.28C2.00005 50.28 1.83006 38.88 9.60006 36" stroke="#333333" stroke-width="3"/>
<path d="M38.53 49.29C44.1909 49.29 48.78 44.7009 48.78 39.04C48.78 33.3791 44.1909 28.79 38.53 28.79C32.8691 28.79 28.28 33.3791 28.28 39.04C28.28 44.7009 32.8691 49.29 38.53 49.29Z" stroke="#333333" stroke-width="3"/>
<path d="M38.53 31.84V39.36L42.11 42.11" stroke="#333333" stroke-width="3"/>
</svg>
