<svg width="60" height="62" viewBox="0 0 60 62" fill="none" xmlns="http://www.w3.org/2000/svg">
<path d="M48.55 10.2875L49.8 14.0375C50.1848 15.218 50.9552 16.2349 51.9875 16.925L55.15 19.05C56.2117 19.7625 56.9969 20.8177 57.3745 22.0393C57.7522 23.2609 57.6994 24.5751 57.225 25.7625L55.975 28.8C55.4309 30.1428 55.4309 31.6447 55.975 32.9875L57.225 35.95C57.6983 37.1135 57.7658 38.4025 57.4165 39.609C57.0672 40.8156 56.3216 41.8692 55.3 42.6L52.5 44.65C51.4691 45.3827 50.7194 46.4455 50.375 47.6625L49.3625 51.2125C49.01 52.4588 48.2345 53.5435 47.1693 54.2802C46.1041 55.017 44.8155 55.3599 43.525 55.25L40.4875 55C39.05 54.8805 37.6229 55.3293 36.5125 56.25L33.5875 58.6125C32.5903 59.4257 31.343 59.8698 30.0563 59.8698C28.7695 59.8698 27.5222 59.4257 26.525 58.6125L24.025 56.5625C23.0229 55.746 21.7676 55.304 20.475 55.3125H16.025C14.7623 55.3158 13.5361 54.8893 12.548 54.1033C11.5598 53.3173 10.8684 52.2185 10.5875 50.9875L9.7875 47.5875C9.49844 46.1855 8.67888 44.9495 7.5 44.1375L4.8 42.25C3.7721 41.5555 3.00586 40.5373 2.62309 39.3572C2.24032 38.1772 2.26299 36.9031 2.6875 35.7375L3.9375 32.3125C4.39996 31.0665 4.39996 29.6959 3.9375 28.45L2.8125 25.45C2.37544 24.2648 2.35386 22.9663 2.75128 21.7672C3.14871 20.5681 3.94157 19.5395 5 18.85L7.9625 16.9375C9.10791 16.1967 9.94353 15.0632 10.3125 13.75L11.1875 10.6C11.5381 9.34575 12.3158 8.25338 13.3862 7.51162C14.4566 6.76986 15.7525 6.4253 17.05 6.53748L19.85 6.77498C21.2907 6.88842 22.7194 6.44054 23.8375 5.52498L26.5 3.37498C27.5001 2.5576 28.7521 2.11108 30.0438 2.11108C31.3354 2.11108 32.5874 2.5576 33.5875 3.37498L35.9125 5.32498C37.0312 6.24837 38.4671 6.69706 39.9125 6.57498L42.85 6.36248C44.1029 6.28115 45.3467 6.62419 46.3808 7.33627C47.4149 8.04835 48.1791 9.08796 48.55 10.2875Z" stroke="#333333" stroke-width="3"/>
<path d="M23.05 25.8125C25.6527 25.8125 27.7625 23.7026 27.7625 21.1C27.7625 18.4973 25.6527 16.3875 23.05 16.3875C20.4474 16.3875 18.3375 18.4973 18.3375 21.1C18.3375 23.7026 20.4474 25.8125 23.05 25.8125Z" stroke="#333333" stroke-width="3"/>
<path d="M37.425 45.6125C40.0277 45.6125 42.1375 43.5026 42.1375 40.9C42.1375 38.2974 40.0277 36.1875 37.425 36.1875C34.8224 36.1875 32.7125 38.2974 32.7125 40.9C32.7125 43.5026 34.8224 45.6125 37.425 45.6125Z" stroke="#333333" stroke-width="3"/>
<path d="M42.1375 18.7375L17.3125 43.575" stroke="#333333" stroke-width="3"/>
</svg>
