<svg width="54" height="58" viewBox="0 0 54 58" fill="none" xmlns="http://www.w3.org/2000/svg">
<path d="M24.22 24.42C30.3724 24.42 35.36 19.4325 35.36 13.28C35.36 7.12756 30.3724 2.14001 24.22 2.14001C18.0675 2.14001 13.08 7.12756 13.08 13.28C13.08 19.4325 18.0675 24.42 24.22 24.42Z" stroke="#333333" stroke-width="3"/>
<path d="M36.32 32.69C33.63 30.74 27.98 29.44 24.22 29.44C21.2579 29.44 18.3248 30.0236 15.5882 31.1575C12.8517 32.2913 10.3653 33.9533 8.27125 36.0483C6.17716 38.1433 4.51635 40.6304 3.38369 43.3674C2.25104 46.1045 1.66873 49.0379 1.67005 52H31.57" stroke="#333333" stroke-width="3"/>
<path d="M40.3799 55.86C46.9742 55.86 52.3199 50.5143 52.3199 43.92C52.3199 37.3257 46.9742 31.98 40.3799 31.98C33.7857 31.98 28.4399 37.3257 28.4399 43.92C28.4399 50.5143 33.7857 55.86 40.3799 55.86Z" stroke="#333333" stroke-width="3"/>
<path d="M40.98 36.8V50.8" stroke="#333333" stroke-width="3"/>
<path d="M33.98 43.8H47.98" stroke="#333333" stroke-width="3"/>
</svg>
